<?xml version="1.0" standalone="no"?>
<!DOCTYPE svg PUBLIC "-//W3C//DTD SVG 20010904//EN"
 "http://www.w3.org/TR/2001/REC-SVG-20010904/DTD/svg10.dtd">
<svg version="1.0" xmlns="http://www.w3.org/2000/svg"
 width="500.000000pt" height="500.000000pt" viewBox="0 0 500.000000 500.000000"
 preserveAspectRatio="xMidYMid meet">

<g transform="translate(0.000000,500.000000) scale(0.100000,-0.100000)"
fill="#000000" stroke="none">
<path d="M2858 4973 c7 -3 16 -2 19 1 4 3 -2 6 -13 5 -11 0 -14 -3 -6 -6z"/>
<path d="M2058 4963 c7 -3 16 -2 19 1 4 3 -2 6 -13 5 -11 0 -14 -3 -6 -6z"/>
<path d="M2928 4963 c7 -3 16 -2 19 1 4 3 -2 6 -13 5 -11 0 -14 -3 -6 -6z"/>
<path d="M1988 4953 c6 -2 18 -2 25 0 6 3 1 5 -13 5 -14 0 -19 -2 -12 -5z"/>
<path d="M2998 4953 c7 -3 16 -2 19 1 4 3 -2 6 -13 5 -11 0 -14 -3 -6 -6z"/>
<path d="M1938 4943 c7 -3 16 -2 19 1 4 3 -2 6 -13 5 -11 0 -14 -3 -6 -6z"/>
<path d="M1898 4933 c7 -3 16 -2 19 1 4 3 -2 6 -13 5 -11 0 -14 -3 -6 -6z"/>
<path d="M1840 4920 c-9 -6 -10 -10 -3 -10 6 0 15 5 18 10 8 12 4 12 -15 0z"/>
<path d="M3380 4840 c8 -5 20 -10 25 -10 6 0 3 5 -5 10 -8 5 -19 10 -25 10 -5
0 -3 -5 5 -10z"/>
<path d="M1540 4815 c-14 -8 -20 -14 -15 -14 6 0 21 6 35 14 14 8 21 14 15 14
-5 0 -21 -6 -35 -14z"/>
<path d="M3430 4820 c8 -5 20 -10 25 -10 6 0 3 5 -5 10 -8 5 -19 10 -25 10 -5
0 -3 -5 5 -10z"/>
<path d="M3500 4790 c19 -11 40 -19 45 -19 6 0 -6 8 -25 19 -19 11 -39 19 -45
19 -5 0 6 -8 25 -19z"/>
<path d="M1470 4785 c-14 -8 -20 -14 -15 -14 6 0 21 6 35 14 14 8 21 14 15 14
-5 0 -21 -6 -35 -14z"/>
<path d="M3561 4766 c10 -9 109 -56 109 -51 0 5 -95 55 -106 55 -4 0 -5 -2 -3
-4z"/>
<path d="M2438 4694 c-5 -4 -8 -54 -8 -111 l0 -103 50 0 c39 0 52 4 60 20 9
16 21 20 61 20 54 0 103 20 113 45 3 9 6 34 6 56 0 59 -27 72 -164 77 -61 2
-114 1 -118 -4z m181 -90 c12 -12 -40 -26 -58 -15 -22 14 -2 33 28 26 14 -4
28 -9 30 -11z"/>
<path d="M3700 4696 c0 -3 9 -10 20 -16 11 -6 20 -8 20 -6 0 3 -9 10 -20 16
-11 6 -20 8 -20 6z"/>
<path d="M1990 4634 c-52 -13 -103 -24 -114 -24 -20 0 -21 2 10 -137 15 -69
18 -73 44 -73 15 0 40 4 56 9 16 5 56 14 89 21 86 17 105 26 105 51 0 23 -3
23 -112 3 -26 -4 -38 -3 -38 5 0 13 23 23 88 40 25 7 42 18 42 26 0 18 -13 19
-79 3 -39 -9 -54 -9 -63 0 -9 9 -3 15 25 27 20 8 45 15 55 15 29 0 54 23 46
43 -8 22 -37 21 -154 -9z"/>
<path d="M3780 4646 c0 -2 7 -7 16 -10 8 -3 12 -2 9 4 -6 10 -25 14 -25 6z"/>
<path d="M3011 4618 c-14 -38 -51 -164 -51 -176 0 -10 93 -42 123 -42 8 0 17
10 20 21 6 22 8 22 120 3 33 -5 37 -4 37 14 0 16 -13 25 -57 40 -34 11 -58 24
-58 33 0 17 49 16 81 -2 33 -17 59 -8 62 24 2 16 -2 29 -10 31 -7 2 -60 18
-118 36 -58 17 -113 34 -122 36 -12 4 -21 -2 -27 -18z"/>
<path d="M1255 4613 c-23 -6 -65 -33 -65 -42 0 -3 11 -7 24 -7 19 -1 23 2 18
19 -4 17 -1 19 20 15 16 -3 25 0 25 9 0 7 -1 12 -1 12 -1 -1 -10 -4 -21 -6z"/>
<path d="M1089 4569 l-24 -20 28 17 c15 9 27 18 27 20 0 8 -8 4 -31 -17z"/>
<path d="M3880 4587 c0 -3 12 -12 26 -22 15 -9 23 -12 20 -6 -7 11 -46 35 -46
28z"/>
<path d="M1008 4515 c-27 -20 -48 -38 -48 -41 0 -6 89 57 96 68 8 13 1 9 -48
-27z"/>
<path d="M1120 4535 c-10 -12 -10 -15 3 -15 8 0 20 7 27 15 10 12 10 15 -3 15
-8 0 -20 -7 -27 -15z"/>
<path d="M3940 4547 c0 -3 35 -30 78 -62 42 -32 69 -48 59 -37 -19 21 -137
106 -137 99z"/>
<path d="M1220 4520 c0 -5 5 -10 10 -10 6 0 10 5 10 10 0 6 -4 10 -10 10 -5 0
-10 -4 -10 -10z"/>
<path d="M3951 4491 c13 -11 26 -17 28 -15 5 5 -30 33 -43 34 -4 0 2 -9 15
-19z"/>
<path d="M1045 4480 c-10 -11 -16 -22 -14 -25 7 -6 49 24 49 36 0 15 -16 10
-35 -11z"/>
<path d="M1452 4431 c-127 -71 -129 -73 -113 -107 12 -27 18 -27 78 -9 19 6
27 -1 53 -44 34 -54 39 -57 73 -40 56 29 58 37 31 90 -19 39 -22 54 -14 69 6
11 17 20 26 20 8 0 17 7 20 15 7 18 -22 65 -39 64 -6 -1 -58 -27 -115 -58z"/>
<path d="M929 4453 c-13 -16 -12 -17 4 -4 9 7 17 15 17 17 0 8 -8 3 -21 -13z"/>
<path d="M1071 4440 c-18 -26 -25 -29 -42 -20 -11 6 -17 16 -13 21 4 7 -1 9
-12 7 -11 -2 -20 -13 -22 -24 -2 -14 -14 -25 -33 -30 -40 -12 -201 -156 -189
-168 15 -15 12 -30 -3 -18 -10 9 -27 -2 -70 -42 -31 -30 -57 -61 -57 -69 0 -8
-20 -32 -44 -53 -24 -21 -42 -44 -39 -51 3 -8 -2 -13 -13 -13 -9 0 -15 -3 -11
-6 3 -3 -5 -18 -19 -32 -13 -15 -24 -33 -24 -40 0 -7 -7 -15 -15 -18 -8 -4
-15 -12 -15 -19 0 -8 -7 -20 -15 -29 -8 -8 -27 -37 -40 -65 -14 -28 -30 -53
-34 -56 -11 -6 -61 -101 -61 -114 0 -6 -12 -27 -26 -48 -14 -21 -30 -57 -37
-80 -6 -23 -14 -40 -19 -37 -11 7 -5 -39 5 -47 5 -3 23 -3 40 0 23 5 33 13 35
29 3 19 56 128 123 252 40 73 111 180 164 247 33 41 75 96 93 122 19 25 79 90
134 144 94 90 101 103 57 99 -16 -2 -3 28 18 39 13 7 23 18 23 26 0 7 7 13 15
13 8 0 15 -7 15 -15 0 -8 -7 -15 -15 -15 -8 0 -15 -9 -15 -20 0 -20 1 -20 31
-5 16 9 33 23 36 31 3 7 11 14 18 14 7 0 15 9 18 20 3 11 14 20 24 20 11 0 36
18 56 40 27 31 32 40 18 40 -9 0 -27 -14 -40 -30z m-86 -80 c-3 -5 -10 -10
-16 -10 -5 0 -9 5 -9 10 0 6 7 10 16 10 8 0 12 -4 9 -10z m-165 -120 c-20 -13
-43 -13 -35 0 3 6 16 10 28 10 18 0 19 -2 7 -10z m-112 -117 c-6 -7 -14 -13
-18 -13 -3 0 -7 6 -7 13 0 7 8 13 18 13 13 0 15 -3 7 -13z m-178 -228 c0 -8
-4 -15 -10 -15 -5 0 -7 7 -4 15 4 8 8 15 10 15 2 0 4 -7 4 -15z m-50 -55 c0
-5 -5 -10 -11 -10 -5 0 -7 5 -4 10 3 6 8 10 11 10 2 0 4 -4 4 -10z m-40 -55
c0 -8 -4 -15 -10 -15 -5 0 -7 7 -4 15 4 8 8 15 10 15 2 0 4 -7 4 -15z m-123
-267 c-3 -8 -6 -5 -6 6 -1 11 2 17 5 13 3 -3 4 -12 1 -19z m-30 -35 c-3 -10
-5 -2 -5 17 0 19 2 27 5 18 2 -10 2 -26 0 -35z m-17 -41 c0 -15 -28 -47 -35
-40 -8 8 13 48 25 48 6 0 10 -4 10 -8z"/>
<path d="M4020 4442 c6 -13 14 -21 18 -18 3 4 -2 14 -12 24 -18 16 -18 16 -6
-6z"/>
<path d="M859 4393 l-34 -38 38 34 c34 33 42 41 34 41 -2 0 -19 -17 -38 -37z"/>
<path d="M4130 4395 c19 -19 36 -35 39 -35 3 0 -10 16 -29 35 -19 19 -36 35
-39 35 -3 0 10 -16 29 -35z"/>
<path d="M3509 4337 c-25 -45 -44 -86 -42 -92 6 -15 88 -65 106 -65 9 0 37 37
66 87 l50 88 -52 32 c-29 18 -59 32 -67 32 -8 0 -36 -36 -61 -82z"/>
<path d="M4260 4275 c47 -47 87 -85 90 -85 2 0 -33 38 -80 85 -47 47 -87 85
-90 85 -2 0 33 -38 80 -85z"/>
<path d="M725 4268 l-70 -73 73 70 c39 38 72 71 72 72 0 8 -11 -2 -75 -69z"/>
<path d="M4170 4316 c0 -2 8 -10 18 -17 15 -13 16 -12 3 4 -13 16 -21 21 -21
13z"/>
<path d="M1975 4219 c-22 -22 -58 -47 -80 -57 -222 -97 -379 -204 -550 -376
-66 -67 -150 -146 -185 -177 -36 -31 -79 -76 -95 -100 -16 -24 -45 -63 -64
-87 l-35 -44 -16 23 c-22 28 -26 20 -35 -66 -4 -38 -14 -88 -22 -110 -50 -137
-65 -190 -82 -275 -27 -131 -45 -330 -37 -409 3 -36 2 -102 -2 -146 -7 -75 -3
-183 13 -302 7 -52 7 -53 -19 -53 -35 0 -33 -13 12 -63 21 -23 48 -60 59 -82
27 -52 63 -133 63 -142 0 -20 182 -273 243 -339 77 -81 121 -124 127 -124 4 0
38 -37 74 -83 63 -79 142 -151 234 -212 23 -15 42 -30 42 -33 0 -3 -7 -14 -16
-24 -20 -21 -14 -24 66 -31 30 -3 82 -15 115 -27 173 -63 230 -77 465 -110 82
-11 633 -7 689 5 33 7 34 7 27 -19 -10 -39 12 -33 66 18 25 24 68 52 94 62
114 45 263 125 309 165 28 25 73 62 100 84 28 22 95 85 150 140 55 55 122 118
149 140 69 56 90 80 153 168 54 76 56 77 75 60 26 -24 38 -5 38 64 0 35 10 78
31 130 84 209 107 370 111 788 2 149 -1 296 -6 328 -8 54 -7 57 13 57 11 0 21
3 21 6 0 3 -20 31 -43 62 -24 32 -50 73 -58 92 -31 82 -119 247 -147 277 -17
18 -32 36 -34 42 -7 22 -167 200 -216 241 -28 25 -69 68 -91 95 -57 75 -151
167 -200 195 -24 14 -55 35 -69 47 -26 21 -26 22 -8 36 31 23 10 37 -55 37
-45 0 -80 8 -142 34 -110 45 -140 54 -222 66 -38 6 -113 18 -165 26 -52 8
-156 14 -230 13 -74 -1 -166 4 -204 9 -71 11 -187 3 -270 -19 -46 -13 -66 -6
-66 21 0 31 -30 23 -75 -21z m545 -43 c76 -21 187 -78 259 -132 57 -43 98 -53
86 -22 -6 15 -145 109 -199 135 -20 9 -36 20 -36 25 0 11 117 10 177 -1 26 -5
82 -15 123 -21 223 -37 503 -180 657 -337 112 -114 176 -246 204 -419 14 -85
22 -105 40 -87 12 12 -8 148 -36 238 -7 25 -9 47 -5 50 11 7 138 -147 203
-245 63 -95 101 -173 138 -279 80 -232 99 -416 59 -573 -22 -90 -74 -196 -136
-281 -24 -34 -44 -67 -44 -74 0 -20 20 -15 41 10 27 32 109 155 109 164 0 4
10 19 21 33 l21 25 -7 -109 c-18 -327 -156 -657 -358 -857 -119 -118 -261
-184 -442 -205 -56 -7 -90 -29 -67 -43 14 -8 187 20 240 39 57 21 60 -2 5 -46
-26 -22 -57 -47 -68 -57 -82 -76 -317 -205 -455 -251 -96 -32 -286 -66 -364
-66 -141 1 -324 67 -454 165 -63 47 -82 54 -82 30 0 -16 71 -71 167 -129 93
-56 91 -60 -22 -52 -223 17 -435 77 -605 172 -293 163 -416 330 -470 638 -5
33 -10 61 -10 63 0 2 -7 3 -15 3 -10 0 -15 -10 -15 -32 0 -40 18 -139 36 -197
27 -85 15 -82 -68 17 -107 126 -205 287 -259 425 -83 209 -105 481 -53 637 24
72 83 182 130 246 46 61 50 69 36 78 -17 10 -106 -104 -151 -191 -40 -80 -50
-46 -31 104 25 191 73 371 130 483 25 51 91 162 100 170 3 3 31 39 62 80 122
160 234 226 463 274 102 22 136 39 103 51 -15 6 -197 -28 -242 -44 -34 -14
-36 -14 -36 0 0 26 202 179 345 262 89 52 241 105 385 136 111 24 297 23 390
-3z"/>
<path d="M2286 3895 c5 -11 -1 -15 -19 -15 -14 0 -27 -6 -30 -13 -4 -10 2 -13
19 -9 14 2 24 0 24 -7 0 -6 -10 -11 -22 -11 -23 -1 -23 -1 2 -14 14 -7 47 -16
74 -20 82 -10 92 -22 106 -122 7 -48 23 -121 37 -163 28 -89 40 -213 24 -253
-9 -23 -17 -28 -47 -28 -40 0 -94 -44 -94 -77 0 -10 -13 -58 -29 -108 -29 -88
-46 -149 -77 -270 -8 -33 -24 -89 -34 -125 -11 -36 -22 -86 -25 -111 -5 -44
-9 -48 -93 -110 -148 -109 -252 -199 -278 -240 -31 -50 -31 -100 -1 -133 29
-31 55 -41 171 -67 99 -21 125 -29 204 -65 29 -13 55 -24 58 -24 3 0 38 -16
77 -36 82 -41 217 -134 259 -178 27 -28 33 -41 40 -91 6 -37 32 -22 44 24 6
25 15 46 22 49 15 5 75 -91 145 -233 33 -66 79 -143 103 -172 40 -49 84 -144
84 -179 0 -9 6 -14 13 -12 16 6 25 103 13 148 -4 19 -6 69 -3 111 7 91 -1 107
-58 111 l-40 3 -34 84 c-18 46 -44 123 -58 170 -25 85 -72 167 -118 203 -42
32 -74 94 -99 190 -14 53 -43 132 -66 176 -22 44 -40 88 -40 100 0 11 11 40
25 63 30 52 33 133 10 222 -25 95 -20 138 18 174 37 36 106 72 198 104 71 25
145 28 404 12 159 -9 286 -9 428 2 l99 7 49 -52 c55 -59 74 -58 72 5 -1 19 3
35 8 35 5 0 9 6 9 13 0 7 -29 27 -65 45 -55 27 -77 32 -138 32 -39 0 -112 5
-162 10 -49 6 -135 14 -190 20 -122 11 -140 16 -123 37 10 12 9 17 -5 24 -24
14 -21 38 5 48 l23 8 -23 7 c-15 5 -22 15 -22 33 0 14 -11 38 -25 55 -14 16
-25 38 -25 48 0 31 -36 43 -103 36 -32 -4 -67 -12 -77 -18 -10 -6 -29 -8 -45
-4 -23 6 -26 9 -14 17 10 6 7 9 -13 9 -14 0 -28 -5 -30 -10 -2 -6 -26 -13 -55
-16 -39 -5 -53 -11 -56 -26 -4 -15 -13 -19 -39 -16 -41 4 -60 39 -83 153 -32
157 -39 177 -115 338 -21 44 -30 52 -97 83 -82 37 -105 42 -97 19z m31 -1657
c6 -13 45 -70 88 -128 80 -109 113 -165 103 -176 -20 -19 -139 44 -273 146
-27 21 -65 46 -83 57 -19 10 -34 22 -34 28 0 5 24 22 53 38 30 16 63 36 74 43
29 21 60 17 72 -8z"/>
<path d="M988 4095 c-89 -85 -100 -105 -77 -146 24 -46 68 -41 123 13 20 19
33 25 40 18 7 -7 -5 -26 -37 -58 -48 -49 -55 -82 -18 -82 18 0 191 170 191
187 0 6 -9 22 -21 37 -28 35 -66 34 -109 -4 -34 -28 -60 -38 -60 -22 0 4 22
30 50 57 47 46 49 50 33 67 -9 10 -19 18 -22 18 -3 0 -45 -38 -93 -85z"/>
<path d="M3901 4153 l-21 -26 20 -22 c28 -30 25 -56 -10 -90 -16 -16 -30 -36
-30 -45 0 -20 50 -70 70 -70 8 0 31 17 52 37 l38 37 35 -18 c34 -18 36 -19 55
-1 11 10 20 23 20 30 0 13 -187 195 -200 195 -5 0 -18 -12 -29 -27z"/>
<path d="M4310 4171 c0 -10 19 -25 25 -20 1 2 -3 10 -11 17 -8 7 -14 8 -14 3z"/>
<path d="M4360 4167 c0 -2 15 -16 33 -33 l32 -29 -29 33 c-28 30 -36 37 -36
29z"/>
<path d="M584 4118 c-30 -34 -47 -58 -42 -58 3 0 19 18 37 40 34 43 38 55 5
18z"/>
<path d="M4505 3991 c41 -56 99 -141 127 -187 54 -89 79 -117 32 -36 -45 79
-160 244 -199 287 -20 22 -2 -7 40 -64z"/>
<path d="M479 3983 c-52 -71 -61 -87 -32 -53 33 36 85 110 79 110 -3 0 -24
-26 -47 -57z"/>
<path d="M4488 3963 c16 -37 48 -83 61 -88 10 -4 9 1 -3 17 -9 13 -26 38 -37
56 -23 35 -33 42 -21 15z"/>
<path d="M400 3870 c-6 -11 -8 -20 -6 -20 3 0 10 9 16 20 6 11 8 20 6 20 -3 0
-10 -9 -16 -20z"/>
<path d="M4571 3845 c0 -13 28 -50 33 -44 3 2 -4 15 -14 29 -11 14 -20 21 -19
15z"/>
<path d="M317 3743 c-4 -3 -7 -11 -7 -17 0 -6 5 -5 12 2 6 6 9 14 7 17 -3 3
-9 2 -12 -2z"/>
<path d="M259 3629 c-22 -45 -39 -83 -37 -85 2 -2 23 35 46 81 23 47 40 85 37
85 -3 0 -23 -36 -46 -81z"/>
<path d="M4733 3623 c24 -49 56 -118 72 -156 15 -37 30 -66 32 -64 8 9 -130
307 -142 307 -3 0 14 -39 38 -87z"/>
<path d="M4678 3665 c5 -11 12 -27 15 -35 5 -13 6 -13 6 1 1 8 -6 24 -15 35
-15 19 -15 19 -6 -1z"/>
<path d="M4711 3594 c0 -11 3 -14 6 -6 3 7 2 16 -1 19 -3 4 -6 -2 -5 -13z"/>
<path d="M4740 3531 c0 -5 5 -13 10 -16 6 -3 10 -2 10 4 0 5 -4 13 -10 16 -5
3 -10 2 -10 -4z"/>
<path d="M202 3505 c-17 -37 -14 -45 4 -12 9 16 14 31 11 33 -2 2 -9 -7 -15
-21z"/>
<path d="M4760 3480 c0 -5 5 -10 11 -10 5 0 7 5 4 10 -3 6 -8 10 -11 10 -2 0
-4 -4 -4 -10z"/>
<path d="M166 3420 c-22 -56 -19 -65 5 -11 11 24 18 46 15 48 -2 2 -11 -14
-20 -37z"/>
<path d="M4805 3380 c-3 -5 -1 -10 4 -10 6 0 11 5 11 10 0 6 -2 10 -4 10 -3 0
-8 -4 -11 -10z"/>
<path d="M187 3343 c-10 -10 -8 -53 2 -53 10 0 21 24 21 46 0 15 -12 19 -23 7z"/>
<path d="M220 3334 c0 -9 5 -12 12 -8 7 4 8 3 4 -4 -4 -7 -4 -17 0 -23 11 -19
24 13 13 33 -12 22 -29 24 -29 2z"/>
<path d="M4820 3331 c0 -12 5 -21 10 -21 6 0 10 6 10 14 0 8 -4 18 -10 21 -5
3 -10 -3 -10 -14z"/>
<path d="M4861 3325 c1 -19 18 -51 18 -35 0 8 -4 22 -9 30 -5 8 -9 11 -9 5z"/>
<path d="M4840 3275 c0 -8 4 -15 10 -15 5 0 7 7 4 15 -4 8 -8 15 -10 15 -2 0
-4 -7 -4 -15z"/>
<path d="M170 3239 c0 -5 -4 -8 -9 -5 -17 11 -20 -24 -6 -58 8 -20 15 -38 15
-41 0 -13 -22 8 -30 29 -7 17 -9 14 -9 -19 -1 -29 2 -36 9 -25 8 13 10 13 10
-2 0 -9 -9 -20 -20 -23 -11 -3 -23 -17 -26 -31 -10 -41 2 -38 32 9 16 24 34
42 41 40 6 -2 13 9 15 24 3 15 9 36 13 46 11 25 -10 21 -23 -5 l-11 -23 0 22
c-1 12 4 25 9 28 6 3 10 15 10 26 0 10 -4 19 -10 19 -5 0 -10 -5 -10 -11z"/>
<path d="M211 3234 c0 -11 3 -14 6 -6 3 7 2 16 -1 19 -3 4 -6 -2 -5 -13z"/>
<path d="M4860 3204 c0 -8 5 -12 10 -9 6 4 8 11 5 16 -9 14 -15 11 -15 -7z"/>
<path d="M91 3194 c0 -11 3 -14 6 -6 3 7 2 16 -1 19 -3 4 -6 -2 -5 -13z"/>
<path d="M71 3133 c-16 -58 -25 -109 -18 -103 7 7 37 134 32 138 -2 2 -8 -14
-14 -35z"/>
<path d="M4880 3140 c0 -11 4 -20 9 -20 5 0 7 9 4 20 -3 11 -7 20 -9 20 -2 0
-4 -9 -4 -20z"/>
<path d="M4902 3065 c0 -16 2 -22 5 -12 2 9 2 23 0 30 -3 6 -5 -1 -5 -18z"/>
<path d="M4931 3084 c1 -29 37 -165 38 -144 0 28 -25 139 -33 148 -3 3 -6 1
-5 -4z"/>
<path d="M42 3000 c0 -14 2 -19 5 -12 2 6 2 18 0 25 -3 6 -5 1 -5 -13z"/>
<path d="M4922 2975 c0 -16 2 -22 5 -12 2 9 2 23 0 30 -3 6 -5 -1 -5 -18z"/>
<path d="M32 2945 c0 -16 2 -22 5 -12 2 9 2 23 0 30 -3 6 -5 -1 -5 -18z"/>
<path d="M4972 2885 c0 -16 2 -22 5 -12 2 9 2 23 0 30 -3 6 -5 -1 -5 -18z"/>
<path d="M22 2880 c0 -14 2 -19 5 -12 2 6 2 18 0 25 -3 6 -5 1 -5 -13z"/>
<path d="M4942 2860 c0 -14 2 -19 5 -12 2 6 2 18 0 25 -3 6 -5 1 -5 -13z"/>
<path d="M4988 2564 c1 -148 4 -280 6 -294 2 -14 3 94 3 240 0 146 -2 278 -6
294 -3 17 -5 -91 -3 -240z"/>
<path d="M12 2790 c0 -14 2 -19 5 -12 2 6 2 18 0 25 -3 6 -5 1 -5 -13z"/>
<path d="M3 2695 c0 -27 2 -38 4 -22 2 15 2 37 0 50 -2 12 -4 0 -4 -28z"/>
<path d="M4958 2704 c-2 -19 -1 -54 3 -77 5 -35 7 -29 8 36 1 81 -4 101 -11
41z"/>
<path d="M4263 2655 c0 -22 2 -30 4 -17 2 12 2 30 0 40 -3 9 -5 -1 -4 -23z"/>
<path d="M359 2608 c-28 -55 -23 -51 -76 -58 -26 -3 -48 -10 -50 -16 -2 -5 11
-26 28 -45 29 -32 31 -38 26 -91 -3 -32 -2 -58 2 -58 4 0 26 9 49 20 22 11 46
20 51 20 6 0 26 -9 46 -20 20 -11 40 -20 45 -20 6 0 7 24 4 58 -6 54 -4 58 25
86 46 44 42 66 -11 66 -53 0 -59 5 -82 58 -11 23 -23 42 -27 42 -5 0 -18 -19
-30 -42z"/>
<path d="M4558 2598 c-21 -39 -27 -43 -66 -46 -56 -4 -64 -24 -24 -65 27 -29
30 -36 25 -83 -3 -29 -1 -54 4 -57 6 -4 29 2 51 13 51 25 51 25 101 -2 22 -12
44 -19 47 -15 4 4 2 25 -5 47 -13 44 -7 63 34 104 40 40 33 56 -25 56 -50 0
-51 1 -72 45 -12 25 -28 45 -34 45 -7 0 -23 -19 -36 -42z"/>
<path d="M3 2305 c0 -27 2 -38 4 -22 2 15 2 37 0 50 -2 12 -4 0 -4 -28z"/>
<path d="M4963 2295 c0 -22 2 -30 4 -17 2 12 2 30 0 40 -3 9 -5 -1 -4 -23z"/>
<path d="M4982 2210 c0 -19 2 -27 5 -17 2 9 2 25 0 35 -3 9 -5 1 -5 -18z"/>
<path d="M22 2130 c0 -14 2 -19 5 -12 2 6 2 18 0 25 -3 6 -5 1 -5 -13z"/>
<path d="M4959 2056 c-8 -47 -12 -83 -8 -80 9 5 32 139 27 154 -2 6 -10 -27
-19 -74z"/>
<path d="M4921 2004 c0 -11 3 -14 6 -6 3 7 2 16 -1 19 -3 4 -6 -2 -5 -13z"/>
<path d="M47 1975 c3 -22 10 -49 14 -60 6 -13 6 -5 2 20 -3 22 -10 49 -14 60
-6 13 -6 5 -2 -20z"/>
<path d="M396 1975 c-49 -13 -93 -28 -98 -33 -12 -12 17 -108 41 -138 37 -46
89 -56 144 -28 73 37 87 74 64 164 -17 67 -25 69 -151 35z m116 -84 c2 -47
-26 -71 -82 -71 -49 0 -72 15 -84 57 -8 26 2 33 79 54 70 19 86 11 87 -40z"/>
<path d="M4295 1924 c-9 -31 -15 -63 -13 -72 2 -12 34 -25 108 -44 58 -15 110
-26 116 -24 16 6 47 127 35 139 -15 15 -30 -1 -41 -43 -9 -32 -16 -40 -33 -40
-34 0 -46 17 -37 50 8 29 -2 56 -18 46 -5 -3 -12 -19 -16 -36 -5 -27 -10 -31
-33 -28 -27 3 -28 5 -25 56 3 41 0 52 -12 52 -9 0 -20 -20 -31 -56z"/>
<path d="M4936 1934 c-4 -14 -5 -28 -3 -31 3 -2 8 8 11 23 4 14 5 28 3 31 -3
2 -8 -8 -11 -23z"/>
<path d="M4871 1713 c-1 -6 -4 -20 -7 -30 -5 -17 -5 -17 6 0 6 10 9 23 6 30
-3 9 -5 9 -5 0z"/>
<path d="M4822 1578 c-17 -45 -30 -84 -28 -86 2 -2 18 33 36 78 17 45 29 84
27 86 -2 2 -18 -33 -35 -78z"/>
<path d="M4183 1580 c-26 -11 -53 -59 -53 -94 0 -14 10 -34 22 -46 34 -32 69
-26 113 20 44 46 78 50 83 12 4 -28 -22 -60 -51 -64 -26 -4 -35 -36 -12 -44
41 -16 105 53 105 113 0 38 -32 73 -67 73 -13 0 -42 -17 -67 -40 -43 -40 -69
-49 -81 -29 -13 20 5 57 30 63 16 4 25 13 25 26 0 21 -12 24 -47 10z"/>
<path d="M170 1575 c0 -5 5 -17 10 -25 5 -8 10 -10 10 -5 0 6 -5 17 -10 25 -5
8 -10 11 -10 5z"/>
<path d="M553 1522 c-63 -31 -93 -52 -93 -64 0 -9 4 -19 9 -22 13 -8 209 85
216 102 7 19 -3 32 -23 31 -9 0 -59 -21 -109 -47z"/>
<path d="M190 1525 c0 -5 5 -17 10 -25 5 -8 10 -10 10 -5 0 6 -5 17 -10 25 -5
8 -10 11 -10 5z"/>
<path d="M210 1471 c0 -6 4 -13 10 -16 6 -3 7 1 4 9 -7 18 -14 21 -14 7z"/>
<path d="M4728 1367 c-32 -62 -51 -103 -42 -92 19 24 106 196 102 200 -2 2
-29 -47 -60 -108z"/>
<path d="M4655 1460 c4 -6 11 -8 16 -5 14 9 11 15 -7 15 -8 0 -12 -5 -9 -10z"/>
<path d="M4720 1440 c0 -5 5 -10 10 -10 6 0 10 5 10 10 0 6 -4 10 -10 10 -5 0
-10 -4 -10 -10z"/>
<path d="M230 1436 c0 -10 60 -126 65 -126 3 0 -9 28 -26 63 -33 65 -39 75
-39 63z"/>
<path d="M4690 1387 c0 -13 -3 -27 -7 -33 -5 -5 2 2 14 16 27 29 29 40 8 40
-9 0 -15 -9 -15 -23z"/>
<path d="M4590 1365 c-7 -9 -8 -15 -2 -15 5 0 12 7 16 15 3 8 4 15 2 15 -2 0
-9 -7 -16 -15z"/>
<path d="M4550 1317 c0 -21 -30 -77 -41 -77 -5 0 -9 -7 -9 -15 0 -10 7 -7 25
9 14 13 25 30 25 37 0 8 7 25 16 37 14 20 14 22 0 22 -9 0 -16 -6 -16 -13z"/>
<path d="M4607 1316 c-3 -8 -2 -18 3 -21 13 -8 13 -52 0 -57 -6 -2 -6 -8 0
-18 8 -13 10 -12 10 3 0 9 4 17 9 17 11 0 44 80 36 88 -3 3 -5 0 -5 -7 0 -7
-5 -9 -11 -5 -8 4 -9 -1 -4 -17 6 -22 5 -21 -13 4 -15 22 -21 25 -25 13z"/>
<path d="M716 1244 c-47 -36 -86 -70 -86 -74 0 -6 51 -79 76 -109 2 -2 10 -1
19 3 14 5 13 12 -10 50 -24 40 -24 45 -10 60 23 22 40 20 63 -9 34 -43 59 -24
27 19 -21 28 -18 54 7 62 17 5 28 -1 51 -30 29 -35 47 -39 47 -10 0 20 -69
104 -85 104 -7 0 -51 -30 -99 -66z"/>
<path d="M4560 1250 c0 -5 5 -10 11 -10 5 0 7 5 4 10 -3 6 -8 10 -11 10 -2 0
-4 -4 -4 -10z"/>
<path d="M3957 1226 c-3 -7 7 -25 21 -38 58 -52 151 -118 166 -118 25 0 19 43
-8 60 -14 8 -52 36 -85 63 -64 49 -85 57 -94 33z"/>
<path d="M4640 1210 c-6 -11 -8 -20 -6 -20 3 0 10 9 16 20 6 11 8 20 6 20 -3
0 -10 -9 -16 -20z"/>
<path d="M4501 1169 c-19 -31 -19 -31 -23 -8 -3 22 -5 21 -28 -16 -14 -22 -26
-43 -28 -46 -1 -4 -21 -26 -42 -49 -22 -24 -40 -47 -40 -52 0 -5 -14 -23 -30
-40 -17 -16 -27 -34 -24 -40 4 -6 2 -8 -3 -5 -17 10 -173 -144 -173 -171 0
-20 -10 -27 -33 -23 -18 3 -92 -73 -89 -91 4 -20 -14 -25 -21 -5 -4 12 -14 5
-84 -60 -13 -13 -27 -23 -31 -23 -4 0 -18 -9 -32 -20 -14 -11 -33 -20 -42 -20
-10 0 -18 -5 -18 -10 0 -6 -12 -15 -27 -21 -15 -6 -34 -16 -42 -22 -11 -10 -7
-13 25 -18 46 -8 59 -3 43 17 -9 11 -9 18 -1 26 9 9 12 8 12 -5 0 -10 8 -17
19 -17 25 0 36 17 21 35 -21 25 5 24 28 -2 22 -24 22 -25 2 -30 -11 -3 -20
-10 -20 -15 0 -6 -7 -8 -15 -4 -9 3 -21 -4 -32 -20 -14 -22 -22 -25 -53 -21
-20 2 -45 0 -54 -5 -23 -13 -32 -3 -16 17 16 19 11 19 -34 0 -39 -17 -48 -35
-16 -35 11 0 20 -4 20 -10 0 -5 -4 -10 -10 -10 -5 0 -7 -8 -4 -18 5 -16 5 -16
-6 0 -6 10 -17 15 -26 11 -10 -3 -12 -8 -5 -12 14 -9 2 -51 -14 -51 -7 0 -19
-7 -26 -16 -12 -15 -11 -16 11 -9 14 4 27 11 30 14 10 14 108 60 114 54 3 -4
6 -1 6 5 0 7 6 12 14 12 8 0 16 7 20 15 3 8 12 15 21 15 8 0 15 5 15 11 0 5 4
8 8 5 5 -3 26 9 47 27 22 18 36 26 32 20 -6 -9 -3 -11 7 -7 9 3 16 10 16 15 0
5 12 15 28 21 15 7 51 31 81 53 29 22 66 49 80 60 15 11 56 49 92 85 36 36 73
70 83 75 10 6 31 35 47 65 16 30 31 54 34 53 14 -7 25 -1 25 13 0 8 4 13 9 9
12 -7 60 40 65 63 6 33 18 51 29 46 7 -2 18 5 24 15 10 16 10 23 -2 35 -20 19
-19 23 7 37 18 9 20 9 15 -4 -8 -22 23 -15 36 9 14 24 19 124 6 124 -5 0 -18
-14 -28 -31z m19 -59 c0 -5 -7 -10 -15 -10 -8 0 -15 5 -15 10 0 6 7 10 15 10
8 0 15 -4 15 -10z m-140 -119 c0 -12 -20 -25 -27 -18 -7 7 6 27 18 27 5 0 9
-4 9 -9z m-120 -145 c0 -16 -18 -31 -27 -22 -8 8 5 36 17 36 5 0 10 -6 10 -14z
m2 -48 c-7 -7 -12 -8 -12 -2 0 14 12 26 19 19 2 -3 -1 -11 -7 -17z m-21 -35
c11 -13 11 -15 1 -9 -8 5 -21 1 -33 -10 -22 -20 -25 -13 -7 16 16 24 22 25 39
3z m-61 -37 c0 -5 -7 -1 -15 10 -8 10 -14 24 -14 29 0 6 6 1 14 -9 8 -11 15
-24 15 -30z m-50 -46 c0 -5 -4 -10 -10 -10 -5 0 -10 5 -10 10 0 6 5 10 10 10
6 0 10 -4 10 -10z m-36 -34 c-3 -9 -10 -16 -15 -16 -5 0 -4 9 3 20 14 22 21
20 12 -4z m-154 -63 c0 -14 -19 -38 -25 -32 -8 8 5 39 16 39 5 0 9 -3 9 -7z
m64 -6 c-6 -18 -64 -51 -64 -37 0 5 15 19 33 30 38 24 38 24 31 7z m-77 -71
c0 -15 -52 -30 -68 -20 -19 12 -7 23 29 27 20 2 37 4 38 5 0 1 1 -4 1 -12z
m-227 -151 c-7 -8 -27 -14 -44 -14 -17 1 -23 3 -13 6 9 2 15 9 12 14 -4 5 8 9
26 9 27 0 30 -2 19 -15z"/>
<path d="M4550 1143 c0 -7 4 -13 9 -13 5 0 11 6 14 13 3 8 -1 14 -9 14 -8 0
-14 -6 -14 -14z"/>
<path d="M4567 1098 c-19 -29 -50 -73 -68 -98 -19 -24 -28 -41 -22 -37 17 11
140 187 130 187 -2 0 -20 -24 -40 -52z"/>
<path d="M480 1016 c16 -25 35 -48 41 -52 6 -3 -6 17 -26 45 -45 63 -58 68
-15 7z"/>
<path d="M1051 1017 c-8 -10 -7 -19 4 -33 8 -10 15 -24 15 -30 0 -11 -59 -84
-92 -113 -22 -19 -23 -50 -3 -57 10 -4 37 18 81 65 61 66 68 70 84 56 21 -19
50 -20 50 0 0 14 -45 60 -101 104 -22 17 -29 18 -38 8z"/>
<path d="M3712 970 c-18 -11 -40 -37 -48 -57 -14 -33 -14 -40 1 -80 23 -60 69
-93 130 -93 42 0 52 4 82 36 29 31 34 42 31 78 -2 33 -7 42 -25 44 -20 3 -22
-2 -25 -45 -3 -41 -7 -50 -31 -61 -37 -18 -82 -1 -108 42 -24 40 -24 61 1 86
16 16 28 19 55 14 27 -5 36 -3 41 11 15 39 -55 56 -104 25z"/>
<path d="M545 930 c10 -11 20 -20 23 -20 3 0 -3 9 -13 20 -10 11 -20 20 -23
20 -3 0 3 -9 13 -20z"/>
<path d="M4409 888 c-30 -35 -46 -57 -36 -49 21 17 101 111 94 111 -3 0 -29
-28 -58 -62z"/>
<path d="M725 730 c38 -38 72 -70 74 -70 3 0 -26 32 -64 70 -38 39 -72 70 -74
70 -3 0 26 -31 64 -70z"/>
<path d="M4285 749 c-66 -69 -249 -222 -346 -290 -103 -72 -132 -94 -109 -83
33 16 169 111 230 160 68 53 279 253 270 254 -3 0 -24 -19 -45 -41z"/>
<path d="M3311 690 c-30 -17 -57 -32 -59 -35 -5 -5 85 -184 102 -203 10 -10
15 -10 29 0 15 12 15 16 1 45 -9 18 -14 39 -10 48 9 23 50 18 76 -10 25 -27
59 -32 78 -13 17 17 15 28 -6 28 -11 0 -31 11 -46 23 -24 21 -27 29 -21 60 6
30 3 40 -19 61 -33 33 -59 32 -125 -4z m87 -22 c20 -20 14 -45 -15 -68 l-28
-22 -22 27 c-29 34 -29 41 5 59 33 19 45 19 60 4z"/>
<path d="M1646 607 c-10 -7 -21 -28 -25 -47 -4 -23 -16 -39 -36 -50 -32 -18
-46 -54 -34 -88 10 -26 64 -52 107 -52 16 0 35 -7 42 -15 19 -23 30 -18 30 14
0 16 7 34 15 41 24 20 18 33 -12 27 -18 -3 -31 0 -40 11 -18 24 -16 42 5 42
25 0 62 41 62 67 0 26 -44 63 -74 63 -12 0 -30 -6 -40 -13z m70 -42 c8 -20
-13 -45 -37 -45 -13 0 -19 7 -19 23 0 13 3 27 7 30 12 13 44 7 49 -8z m-56
-136 c0 -24 -24 -30 -49 -13 -25 18 -27 37 -4 59 15 16 18 15 34 -7 10 -12 19
-30 19 -39z"/>
<path d="M2938 544 c-36 -11 -48 -20 -48 -34 0 -36 53 -209 66 -214 22 -8 129
31 132 49 3 15 -3 16 -51 10 -51 -6 -56 -5 -62 14 -8 26 8 49 38 53 12 2 23
11 25 20 3 16 -2 17 -42 12 -46 -7 -46 -7 -46 24 0 26 4 31 37 39 23 5 39 15
41 26 4 21 -24 22 -90 1z"/>
<path d="M960 526 c0 -2 8 -10 18 -17 15 -13 16 -12 3 4 -13 16 -21 21 -21 13z"/>
<path d="M2066 496 c-7 -6 -17 -36 -20 -66 -4 -30 -11 -79 -15 -108 -4 -29 -5
-55 -2 -57 3 -1 34 -9 69 -15 47 -10 66 -10 75 -1 16 16 0 29 -48 39 -36 7
-40 11 -40 37 0 29 2 30 48 33 56 4 60 24 6 32 -30 4 -34 8 -34 35 0 29 1 30
49 30 49 0 74 18 39 29 -53 17 -114 23 -127 12z"/>
<path d="M1000 496 c0 -2 14 -14 30 -26 17 -12 30 -19 30 -16 0 2 -13 14 -30
26 -16 12 -30 19 -30 16z"/>
<path d="M2577 445 c-20 -43 -37 -44 -65 -5 -21 28 -62 42 -62 20 0 -5 14 -30
32 -55 l32 -45 -32 -65 -32 -65 25 0 c18 0 32 11 51 42 l27 42 31 -37 c19 -22
40 -37 54 -37 28 0 28 8 -4 51 -44 59 -47 75 -19 125 31 55 31 64 2 64 -17 0
-28 -10 -40 -35z"/>
<path d="M3745 333 c-69 -42 -228 -117 -333 -158 -39 -16 -70 -30 -68 -33 14
-13 382 159 446 209 39 29 21 22 -45 -18z"/>
<path d="M1234 341 c7 -11 46 -35 46 -28 0 3 -12 12 -26 22 -15 9 -23 12 -20
6z"/>
<path d="M3496 325 c8 -20 36 -28 46 -13 13 21 10 25 -21 26 -21 0 -28 -3 -25
-13z"/>
<path d="M1350 275 c0 -7 81 -47 86 -43 2 3 -17 14 -41 26 -25 12 -45 20 -45
17z"/>
<path d="M3472 251 c-11 -7 -10 -10 3 -15 22 -8 22 -8 22 9 0 17 -6 18 -25 6z"/>
<path d="M3276 237 c3 -10 9 -15 12 -12 3 3 0 11 -7 18 -10 9 -11 8 -5 -6z"/>
<path d="M1470 215 c14 -8 30 -14 35 -14 6 0 -1 6 -15 14 -14 8 -29 14 -35 14
-5 0 1 -6 15 -14z"/>
<path d="M3320 215 c-10 -12 -10 -15 4 -15 9 0 16 7 16 15 0 8 -2 15 -4 15 -2
0 -9 -7 -16 -15z"/>
<path d="M3415 210 c-3 -5 -2 -10 4 -10 5 0 13 5 16 10 3 6 2 10 -4 10 -5 0
-13 -4 -16 -10z"/>
<path d="M3258 203 c7 -3 16 -2 19 1 4 3 -2 6 -13 5 -11 0 -14 -3 -6 -6z"/>
<path d="M3375 200 c-3 -5 1 -10 9 -10 9 0 16 5 16 10 0 6 -4 10 -9 10 -6 0
-13 -4 -16 -10z"/>
<path d="M3319 182 c11 -8 11 -10 0 -15 -10 -4 -8 -6 4 -6 21 -1 18 21 -4 27
-12 3 -12 2 0 -6z"/>
<path d="M3070 154 c0 -8 5 -12 10 -9 6 3 10 10 10 16 0 5 -4 9 -10 9 -5 0
-10 -7 -10 -16z"/>
<path d="M3268 153 c6 -2 18 -2 25 0 6 3 1 5 -13 5 -14 0 -19 -2 -12 -5z"/>
<path d="M3235 110 c-13 -6 -15 -9 -5 -9 8 0 22 4 30 9 18 12 2 12 -25 0z"/>
<path d="M3188 93 c7 -3 16 -2 19 1 4 3 -2 6 -13 5 -11 0 -14 -3 -6 -6z"/>
<path d="M3115 75 c-5 -2 -36 -9 -68 -15 -32 -7 -56 -14 -54 -17 7 -6 117 16
137 28 15 8 5 11 -15 4z"/>
<path d="M1998 43 c7 -3 16 -2 19 1 4 3 -2 6 -13 5 -11 0 -14 -3 -6 -6z"/>
<path d="M2043 33 c9 -2 23 -2 30 0 6 3 -1 5 -18 5 -16 0 -22 -2 -12 -5z"/>
<path d="M2880 30 c-27 -6 -29 -8 -10 -8 14 -1 43 3 65 7 33 7 35 9 10 9 -16
-1 -46 -4 -65 -8z"/>
<path d="M2113 23 c9 -2 23 -2 30 0 6 3 -1 5 -18 5 -16 0 -22 -2 -12 -5z"/>
<path d="M2215 10 c31 -8 182 -13 174 -6 -2 2 -49 5 -104 8 -55 3 -86 2 -70
-2z"/>
<path d="M2783 13 c9 -2 23 -2 30 0 6 3 -1 5 -18 5 -16 0 -22 -2 -12 -5z"/>
<path d="M2668 3 c12 -2 32 -2 45 0 12 2 2 4 -23 4 -25 0 -35 -2 -22 -4z"/>
</g>
</svg>
